<svg width="60" height="60" viewBox="0 0 60 60" fill="none" xmlns="http://www.w3.org/2000/svg">
<path d="M30 60C46.5685 60 60 46.5685 60 30C60 13.4315 46.5685 0 30 0C13.4315 0 0 13.4315 0 30C0 46.5685 13.4315 60 30 60Z" fill="#34AADF"/>
<path d="M12.8605 29.3433C12.8605 29.3433 27.721 23.0211 32.8748 20.7949C34.8506 19.9045 41.5506 17.055 41.5506 17.055C41.5506 17.055 44.643 15.8085 44.3853 18.8359C44.2993 20.0826 43.6122 24.4457 42.925 29.1652C41.8942 35.8436 40.7775 43.1452 40.7775 43.1452C40.7775 43.1452 40.6057 45.1933 39.1455 45.5495C37.6852 45.9057 35.28 44.3029 34.8506 43.9467C34.5069 43.6796 28.4081 39.6725 26.1748 37.7135C25.5735 37.1793 24.8863 36.1108 26.2606 34.8641C29.353 31.9256 33.0466 28.2748 35.28 25.9596C36.3108 24.891 37.3415 22.3978 33.0466 25.4253C26.9479 29.7885 20.935 33.8846 20.935 33.8846C20.935 33.8846 19.5606 34.775 16.9836 33.9736C14.4066 33.1723 11.4001 32.1037 11.4001 32.1037C11.4001 32.1037 9.33868 30.768 12.8605 29.3433Z" fill="white"/>
</svg>
